<svg width="44" height="15" viewBox="0 0 44 15" fill="none" xmlns="http://www.w3.org/2000/svg">
<path d="M2.88 6.4H13.14V8.62H2.88V6.4ZM12.7 1.06H15.36V14H12.7V1.06ZM0.54 1.06H3.2V14H0.54V1.06ZM23.9506 14.24C22.6973 14.24 21.5906 14.04 20.6306 13.64C19.684 13.24 18.944 12.66 18.4106 11.9C17.8773 11.1267 17.6106 10.18 17.6106 9.06C17.6106 7.94 17.8773 6.99333 18.4106 6.22C18.944 5.43333 19.684 4.84 20.6306 4.44C21.5906 4.04 22.6973 3.84 23.9506 3.84C25.204 3.84 26.2973 4.04 27.2306 4.44C28.1773 4.84 28.9173 5.43333 29.4506 6.22C29.984 6.99333 30.2506 7.94 30.2506 9.06C30.2506 10.18 29.984 11.1267 29.4506 11.9C28.9173 12.66 28.1773 13.24 27.2306 13.64C26.2973 14.04 25.204 14.24 23.9506 14.24ZM23.9506 12.24C24.644 12.24 25.264 12.12 25.8106 11.88C26.3706 11.6267 26.8106 11.2667 27.1306 10.8C27.4506 10.32 27.6106 9.74 27.6106 9.06C27.6106 8.38 27.4506 7.8 27.1306 7.32C26.8106 6.82667 26.3773 6.45333 25.8306 6.2C25.284 5.94667 24.6573 5.82 23.9506 5.82C23.2573 5.82 22.6306 5.94667 22.0706 6.2C21.5106 6.45333 21.064 6.82 20.7306 7.3C20.4106 7.78 20.2506 8.36667 20.2506 9.06C20.2506 9.74 20.4106 10.32 20.7306 10.8C21.0506 11.2667 21.4906 11.6267 22.0506 11.88C22.6106 12.12 23.244 12.24 23.9506 12.24ZM31.3359 4.24H39.3359V6.22H31.3359V4.24ZM37.4159 0.0599995H39.4759V2.16H38.0359C37.6493 2.14667 37.3159 2.18667 37.0359 2.28C36.7559 2.37333 36.5426 2.54667 36.3959 2.8C36.2493 3.04 36.1759 3.38667 36.1759 3.84V14H33.5759V3.52C33.5759 2.72 33.7226 2.06667 34.0159 1.56C34.3093 1.04 34.7426 0.66 35.3159 0.42C35.8893 0.18 36.5893 0.0599995 37.4159 0.0599995Z" fill="white"/>
<path d="M43.9817 11.72V14H40.9617V11.72H43.9817Z" fill="#B8EC4C"/>
</svg>
